<svg width="40" height="40" viewBox="0 0 40 40" fill="none" xmlns="http://www.w3.org/2000/svg">
<path d="M0.00714558 20.2638C0.00718727 20.2635 0.00660872 20.2632 0.00469971 20.262H0.00504914L1.09356 20.4852C3.31178 20.8923 5.48618 21.5034 7.61211 22.3301C7.9258 22.452 8.23461 22.591 8.54259 22.737C9.62824 23.251 10.6554 23.9352 11.7167 24.6581C12.0371 24.8764 13.0231 25.7221 14.5893 27.3379C15.2304 27.9995 17.0124 30.2041 19.9859 33.9114C20.5634 34.6315 21.1657 35.2888 21.7774 35.8907C22.2938 36.3992 22.774 36.8124 23.1883 37.1608L23.1886 37.1605C23.8975 37.756 24.4588 38.0986 24.8264 38.2879C24.91 38.331 24.9939 38.3749 25.0785 38.4191C25.4604 38.6189 25.8547 38.8252 26.2908 38.9855C24.5051 39.5815 22.6076 39.9605 20.6365 39.9968C20.3207 40.0024 20.1316 39.9824 19.924 39.9603C19.8642 39.9539 19.8029 39.9474 19.7365 39.9413C19.4218 39.9123 19.1311 39.8868 18.8579 39.8628C16.8918 39.69 15.8382 39.5974 13.3286 38.8771C13.3287 38.8771 13.3287 38.8771 13.3288 38.8772C13.3283 38.877 13.3278 38.8768 13.3273 38.8767C13.3245 38.8759 13.3216 38.875 13.3188 38.8742C13.2114 38.8434 13.0989 38.8022 12.9816 38.7511C6.20852 36.2206 1.17844 30.1173 0.183801 22.7346C0.089972 22.0388 0.0319072 21.3313 0.0119332 20.6145C0.0115837 20.6137 0.0112342 20.6129 0.0108847 20.612L0.00504914 20.2687C0.00482147 20.2643 0.00706764 20.2642 0.00714558 20.2638Z" fill="#994F12"/>
<path d="M13.3288 38.8772C13.3289 38.8773 13.329 38.8774 13.3292 38.8776V38.8773C13.329 38.8773 13.3289 38.8772 13.3288 38.8772Z" fill="#994F12"/>
<path d="M3.0548 20.2495C2.82674 20.2493 2.59868 20.2507 2.37097 20.2538C2.37764 20.2559 2.38467 20.2577 2.39169 20.2599L2.55509 20.2602H3.88131L2.55509 20.2599L2.39205 20.2602C2.39205 20.2602 2.39205 20.2602 2.39205 20.2599L2.39169 20.2602H2.39205C8.67885 20.9642 13.5889 24.5197 15.1096 25.4663C16.4313 26.2892 17.6012 27.2407 18.6831 28.2398C19.2886 28.799 20.7118 30.2876 23.0073 32.6605C24.0658 33.755 24.76 34.2971 24.9579 34.4398C25.7798 35.0322 26.5542 35.5163 27.3249 35.8319C27.9084 36.0709 28.4816 36.2224 29.0435 36.2941C29.3011 36.3267 29.5526 36.3468 29.799 36.3468C30.5759 36.3471 31.3018 36.1782 31.9692 35.8251C32.2686 35.6666 32.5594 35.4819 32.8119 35.2434C33.7731 34.3343 34.4709 33.6541 34.9447 33.2437C34.9456 33.2431 34.946 33.2426 34.9466 33.2416L34.9472 33.242C34.9771 33.2156 35.0064 33.1906 35.0347 33.1666H35.0341C35.0267 33.1669 35.0191 33.1672 35.0115 33.1675H35.0113C34.9179 33.1712 34.8237 33.173 34.7285 33.173C34.2774 33.173 33.8051 33.1138 33.3036 33.0487C32.9485 33.0022 32.4914 32.901 31.9381 32.6919L31.9375 32.6922C31.1935 32.4108 30.2642 31.9806 29.1734 31.3584C28.3255 30.8745 27.4691 30.3208 26.6188 29.688C22.2359 26.426 19.6216 24.5163 18.7365 24.0114L17.4292 23.2377C17.1093 23.0618 16.7905 22.8953 16.4725 22.7391C15.9283 22.4712 15.3877 22.2294 14.8481 22.0215C13.1435 21.3648 11.4597 20.9114 9.79475 20.6867C7.88986 20.4301 5.99235 20.2992 4.10699 20.2602V20.2605C3.75602 20.2532 3.40506 20.2495 3.0548 20.2495Z" fill="#994F12"/>
<path d="M34.8197 18.4868C34.7569 18.614 34.6918 18.7402 34.6266 18.8666L34.6266 18.8667C34.5922 18.9333 34.5578 19 34.5237 19.0669C34.4057 19.2987 34.0515 19.8312 33.3575 20.6032C33.1709 20.8109 32.9556 20.9879 32.74 21.1651L32.7398 21.1652C32.6517 21.2377 32.5634 21.3102 32.4771 21.3849C32.3228 21.5178 31.8517 21.8706 30.9646 22.2928C29.6994 22.8947 28.3835 23.094 27.063 22.9919C26.9769 22.9852 26.8908 22.977 26.8046 22.9675C26.6293 22.8873 26.4638 22.8119 26.3078 22.7416L26.3078 22.7416C25.5956 22.4202 25.0859 22.1992 24.7789 22.0782C23.1398 21.4346 21.9594 21.0425 21.2374 20.9023C20.1706 20.613 18.7353 20.4002 16.931 20.2636C16.7252 20.248 16.5146 20.2337 16.2994 20.22C15.7972 20.1864 15.1575 20.1696 14.3804 20.1696C13.3176 20.1694 11.9971 20.2001 10.4198 20.262C10.3846 20.2634 10.3493 20.2648 10.3139 20.2662C10.2876 20.2673 10.2612 20.2683 10.2347 20.2694C14.485 20.8342 17.6252 21.6178 19.6554 22.6193C19.6767 22.6296 19.6978 22.6399 19.7189 22.6501L19.7712 22.6754L19.7729 22.6763C19.8014 22.6901 19.8298 22.7039 19.8581 22.7176C19.8734 22.725 19.8886 22.7324 19.9038 22.7397L19.9042 22.7397L19.9039 22.7401V22.7403C21.4427 23.487 22.3868 23.9913 22.7362 24.252L28.1179 27.7919C28.8383 28.258 29.5509 28.6874 30.2566 29.0794C30.9621 29.4711 31.6539 29.8014 32.3329 30.0693L33.3362 30.4062C36.2853 31.3971 37.0008 30.4242 37.5234 29.5569C37.7362 29.2036 37.9085 28.827 38.0808 28.4505C38.0947 28.4202 38.1086 28.3899 38.1225 28.3596C38.6147 27.2872 39.0145 26.1636 39.3118 24.9992C39.4998 24.2633 39.6469 23.511 39.7506 22.745C39.756 22.7043 39.7609 22.6636 39.7659 22.6228C39.7729 22.5648 39.7799 22.5068 39.7883 22.4489C39.8694 21.8776 39.9326 21.2989 39.9636 20.7129C39.9701 20.592 39.9734 20.478 39.9764 20.3721C39.9774 20.337 39.9784 20.3029 39.9795 20.2696C39.9898 19.9513 39.9953 19.7148 39.9953 19.5883C39.9969 13.6016 37.3295 8.23731 33.1176 4.62081L33.1173 4.62117C33.1136 4.61747 33.1097 4.6139 33.1054 4.61045L33.1051 4.61022L33.1048 4.61004C33.1045 4.60989 33.1042 4.60974 33.1039 4.60961H33.1045C31.2944 3.0582 29.1806 1.85651 26.8783 1.05652C27.9642 1.52433 29.0201 2.1937 30.0304 3.16871C32.9978 6.03218 35.5718 11.5319 35.6466 15.1422C35.6744 16.4864 35.3558 17.5688 34.8197 18.4868Z" fill="#295C00"/>
<path d="M22.1463 0.00373288C22.0951 0.00276058 22.0439 0.00225704 21.9926 0.00222907C21.3387 0.00187179 20.7655 0.0760708 20.228 0.324737C18.6058 1.07615 17.565 3.07394 16.5102 5.09849C15.6244 6.79868 14.7287 8.51774 13.4707 9.53336C11.6814 10.9778 9.15901 10.9988 6.9568 11.0171C5.76724 11.027 4.67111 11.0362 3.83441 11.2684C1.44909 11.9306 1.17316 14.4071 0.897217 16.8837C1.24354 15.7946 1.59046 14.7056 2.08838 13.7861C2.56821 12.8995 3.18928 12.1706 5.47801 12.1712C5.5628 12.1712 5.64962 12.1723 5.7393 12.1741C6.26638 12.1863 6.87565 12.2341 7.53364 12.2858L7.53367 12.2858L7.5337 12.2858C8.45176 12.358 9.46463 12.4376 10.4813 12.4379C12.1978 12.4382 13.9249 12.2126 15.2261 11.3437C16.4418 10.5317 17.2852 9.15792 18.111 7.8129C19.0676 6.25461 20.0006 4.73496 21.4612 4.17239C21.9436 3.98637 22.4835 3.90527 23.0582 3.90527C25.7184 3.90586 28.5349 5.76708 30.3803 6.99136C29.8827 6.87319 29.3788 6.80756 28.8671 6.80744C28.8366 6.80744 28.8061 6.80744 28.7756 6.80804C26.155 6.84734 23.3256 8.61821 20.496 10.3892L20.4957 10.3894C22.9552 9.34519 25.4149 8.30099 27.7033 8.30158C28.1322 8.30194 28.5551 8.3385 28.971 8.41901C30.7347 8.76033 32.3694 9.88609 33.6482 11.3056C33.516 10.7562 33.3537 10.1939 33.1536 9.6153C32.1865 6.8196 30.3353 3.64339 28.0527 1.95251C27.6246 1.63543 27.1814 1.37059 26.7258 1.14817C26.1987 0.918531 25.6761 0.716135 25.1564 0.547857C24.1828 0.264002 23.1715 0.10994 22.1463 0.00373288Z" fill="#295C00"/>
<path d="M17.7663 0.363801C16.8621 0.363562 16.0676 0.431803 15.381 0.562329C14.8633 0.660461 14.3743 0.788248 13.9151 0.952835C10.1667 1.8446 7.11395 5.78086 7.11395 5.78086C8.65633 4.73725 9.84142 3.99923 10.682 3.59253C11.5115 3.19095 12.0161 3.00469 12.1728 2.9605C12.5048 2.86714 12.8246 2.77174 13.1447 2.71351C13.4398 2.65956 13.7572 2.62907 14.098 2.62907C14.4697 2.62943 14.8694 2.6592 15.2956 2.7297C15.691 2.7952 16.0823 2.89095 16.4712 3.00588L16.6703 3.11723C17.2328 2.0361 18.3597 0.692497 18.806 0.390954H18.8063C18.4451 0.372971 18.0984 0.363801 17.7663 0.363801Z" fill="#295C00"/>
</svg>
